<?xml version="1.0" standalone="no"?>
<!DOCTYPE svg PUBLIC "-//W3C//DTD SVG 20010904//EN"
 "http://www.w3.org/TR/2001/REC-SVG-20010904/DTD/svg10.dtd">
<svg version="1.0" xmlns="http://www.w3.org/2000/svg"
 width="1050.000000pt" height="1050.000000pt" viewBox="0 0 1050.000000 1050.000000"
 preserveAspectRatio="xMidYMid meet">
<metadata>
Created by potrace 1.11, written by Peter Selinger 2001-2013
</metadata>
<g transform="translate(0.000000,1050.000000) scale(0.100000,-0.100000)"
fill="#000000" stroke="none">
<path d="M8169 8133 c-51 -62 -70 -102 -64 -134 l6 -34 -1538 0 c-1644 0
-1600 1 -1861 -51 -313 -62 -601 -200 -756 -362 l-39 -41 -66 61 c-234 214
-576 339 -1037 378 -86 7 -477 10 -1189 8 l-1060 -3 0 -450 0 -450 1234 -5
1233 -5 52 -55 c155 -167 190 -403 91 -607 -31 -62 -118 -161 -181 -204 l-43
-29 -588 2 -588 3 -5 330 -5 330 -605 0 -605 0 0 -1770 0 -1770 1205 0 c927 0
1237 3 1345 13 164 16 266 34 356 63 96 30 293 128 388 192 l83 56 57 -38 c87
-59 266 -145 373 -180 92 -29 179 -46 428 -85 94 -15 230 -17 1305 -14 l1200
3 0 1730 0 1730 -615 0 -615 0 -3 -327 -2 -328 -607 0 -606 0 -51 42 c-100 82
-174 192 -196 291 -15 73 -12 225 6 288 23 79 70 155 136 221 l58 58 1768 -6
1767 -6 55 -57 c215 -222 194 -581 -46 -777 l-47 -39 -396 -5 -396 -5 -3 -553
-2 -553 89 -153 c49 -84 257 -461 461 -837 205 -376 377 -690 382 -696 8 -10
165 -13 724 -13 392 0 715 3 717 8 2 4 -165 369 -370 811 l-375 804 45 39 c36
31 47 48 55 86 5 26 8 63 6 82 -3 32 1 38 53 79 l57 44 64 -11 c35 -6 69 -8
76 -6 24 11 77 87 71 103 -4 9 -9 36 -11 61 -4 39 0 54 38 120 24 41 50 76 58
77 8 1 41 5 73 8 l58 7 40 61 40 62 -42 39 -42 39 23 71 c28 88 40 102 117
137 59 28 63 31 78 81 20 70 21 69 -25 113 -40 39 -40 39 -40 116 l0 77 53 38
c74 53 76 57 70 122 -7 74 -14 85 -60 101 -56 20 -60 26 -73 102 l-12 70 51
54 51 54 -23 63 c-21 60 -24 63 -62 71 -87 18 -89 19 -122 87 -18 36 -32 72
-32 80 -1 8 15 35 34 59 l35 43 -27 47 c-42 73 -40 72 -105 69 l-60 -3 -51 58
-50 57 10 68 11 67 -36 38 c-40 41 -59 44 -122 22 -23 -8 -48 -15 -55 -15 -6
0 -41 23 -78 52 -62 49 -65 54 -72 104 -7 55 -25 79 -82 108 -18 9 -34 16 -36
16 -2 0 -27 -18 -56 -39 l-53 -39 -51 15 c-115 34 -126 41 -139 90 -10 42 -15
47 -66 70 l-55 24 -51 -50 -51 -50 -87 6 c-86 6 -87 6 -129 49 -41 42 -46 44
-100 44 -41 0 -60 -5 -70 -17z m-3981 -2277 c34 -26 62 -51 62 -55 0 -4 -60
-37 -132 -74 -73 -37 -149 -76 -168 -88 l-35 -22 -97 55 c-53 30 -126 67 -162
82 -36 16 -66 31 -66 35 1 3 44 40 97 81 53 41 128 110 167 152 l71 77 100
-98 c55 -53 128 -119 163 -145z m-1132 -744 c184 -120 296 -351 266 -553 -21
-148 -85 -268 -205 -390 l-78 -79 -632 2 -632 3 -3 515 c-1 283 0 521 3 528 3
9 135 12 613 12 l609 0 59 -38z m3002 -554 l2 -528 -644 0 -644 0 -50 46 c-69
62 -139 155 -177 239 l-33 70 4 184 c4 180 4 184 34 245 40 80 117 166 203
227 l70 49 616 -2 616 -3 3 -527z"/>
<path d="M4390 3094 c-152 -40 -271 -125 -331 -237 -32 -58 -34 -68 -34 -157
0 -87 3 -101 33 -162 41 -85 109 -147 216 -198 100 -47 160 -60 281 -60 121 0
181 13 281 60 107 52 175 114 216 198 30 61 33 76 33 157 0 79 -3 97 -29 150
-43 86 -115 155 -217 203 -46 22 -108 45 -137 51 -74 15 -246 13 -312 -5z
m264 -224 c14 -5 46 -28 71 -51 80 -74 85 -157 14 -234 -55 -60 -92 -75 -184
-75 -91 0 -125 13 -184 74 -45 46 -61 96 -47 151 9 34 83 114 121 131 35 16
172 18 209 4z"/>
<path d="M7228 3086 c-147 -43 -275 -149 -317 -261 -29 -76 -28 -184 1 -262
42 -115 188 -228 343 -268 78 -20 262 -20 340 0 144 37 275 133 330 242 27 53
30 67 30 158 0 123 -20 171 -110 261 -66 67 -171 124 -263 143 -93 19 -267 13
-354 -13z m308 -227 c54 -26 100 -77 115 -129 16 -52 -8 -116 -58 -161 -51
-44 -92 -59 -168 -59 -78 0 -119 15 -174 65 -74 67 -79 154 -13 227 51 56 101
78 186 78 50 0 82 -6 112 -21z"/>
<path d="M595 3078 c-3 -7 -4 -184 -3 -393 l3 -380 145 0 145 0 5 290 5 290
50 -3 c91 -5 113 -62 34 -88 l-34 -12 0 -93 0 -93 58 -12 c65 -13 81 -23 75
-49 -4 -23 -21 -31 -83 -42 l-50 -8 0 -90 0 -90 106 0 c98 0 110 2 164 30 76
39 114 91 122 166 8 78 -19 136 -86 184 -28 20 -51 40 -51 44 0 4 13 20 30 36
41 40 64 103 56 157 -10 67 -37 102 -103 134 l-58 29 -263 3 c-211 3 -263 1
-267 -10z"/>
<path d="M1617 3072 c-64 -23 -115 -66 -138 -116 -16 -36 -19 -67 -19 -261 0
-193 3 -225 19 -260 23 -50 53 -78 116 -107 47 -21 63 -23 245 -23 l195 0 0
100 0 100 -110 6 c-60 4 -122 7 -137 8 -40 2 -56 37 -30 63 16 17 39 21 138
27 l119 6 0 75 0 75 -109 7 c-114 8 -136 16 -136 53 0 38 24 47 147 54 l118 6
0 100 0 100 -185 2 c-154 2 -193 -1 -233 -15z"/>
<path d="M2235 3078 c-3 -7 -4 -184 -3 -393 l3 -380 145 0 145 0 5 145 5 145
35 5 35 5 0 95 0 95 -35 5 -35 5 -5 140 -5 140 -143 3 c-109 2 -144 0 -147
-10z"/>
<path d="M2675 3078 c-3 -7 -4 -184 -3 -393 l3 -380 145 0 145 0 0 390 0 390
-143 3 c-109 2 -144 0 -147 -10z"/>
<path d="M3195 3078 c-3 -7 -4 -184 -3 -393 l3 -380 145 0 145 0 5 290 c5 288
5 290 27 293 12 2 40 -2 62 -8 67 -18 65 -71 -3 -88 l-31 -8 0 -94 0 -93 58
-12 c56 -11 77 -25 77 -52 0 -18 -19 -27 -80 -38 l-55 -10 0 -90 0 -90 101 0
c96 0 105 2 170 35 61 31 72 41 97 90 24 46 28 63 23 108 -6 69 -31 110 -91
150 -28 17 -51 36 -53 41 -1 4 9 16 23 25 30 20 75 108 75 146 0 14 -11 48
-24 76 -21 45 -30 53 -87 80 l-64 29 -258 3 c-207 3 -258 1 -262 -10z"/>
<path d="M5130 3080 c0 -6 54 -92 121 -191 71 -107 119 -188 116 -198 -2 -9
-23 -44 -46 -76 -167 -237 -209 -301 -202 -308 4 -4 70 -6 147 -5 l139 3 32
55 c53 92 68 114 78 114 6 1 37 -38 69 -86 l60 -88 148 0 c86 0 148 4 148 9 0
6 -56 93 -125 195 -69 102 -125 192 -125 201 0 8 54 93 120 190 66 97 120 180
120 185 0 6 -57 10 -139 10 -139 0 -140 0 -160 -26 -12 -15 -21 -31 -21 -35 0
-5 -14 -32 -31 -60 -37 -59 -36 -60 -109 49 l-45 67 -147 3 c-98 2 -148 -1
-148 -8z"/>
<path d="M6025 3077 c-3 -6 -4 -183 -3 -392 l3 -380 145 0 145 0 5 290 5 290
60 -3 c33 -2 70 -10 83 -18 45 -29 13 -104 -46 -104 -45 0 -52 -15 -52 -117
l0 -93 71 -125 71 -125 149 0 c81 0 150 4 153 9 3 5 -30 77 -75 161 l-81 151
47 41 c60 53 85 103 85 171 0 115 -81 207 -215 242 -78 20 -543 22 -550 2z"/>
<path d="M8125 3078 c-3 -7 -4 -184 -3 -393 l3 -380 145 0 145 0 0 390 0 390
-143 3 c-109 2 -144 0 -147 -10z"/>
<path d="M8584 2943 c-59 -82 -119 -161 -133 -176 -21 -23 -23 -31 -14 -45 7
-9 60 -108 118 -219 l106 -203 159 0 c87 0 161 4 164 8 3 5 -51 100 -119 212
-69 111 -125 206 -125 211 0 5 56 84 124 176 69 92 122 171 120 175 -3 5 -70
8 -149 8 l-143 0 -108 -147z"/>
<path d="M9135 3078 c-3 -7 -4 -184 -3 -393 l3 -380 145 0 145 0 5 145 5 145
35 5 35 5 0 95 0 95 -35 5 -35 5 -5 140 -5 140 -143 3 c-109 2 -144 0 -147
-10z"/>
<path d="M9575 3078 c-3 -7 -4 -184 -3 -393 l3 -380 145 0 145 0 0 390 0 390
-143 3 c-109 2 -144 0 -147 -10z"/>
</g>
</svg>
